<svg width="48" height="48" viewBox="0 0 48 48" fill="none" xmlns="http://www.w3.org/2000/svg">
<mask id="path-1-inside-1" fill="white">
<path fill-rule="evenodd" clip-rule="evenodd" d="M20.5521 9C19.8935 9 19.2771 9.32423 18.904 9.86694L16.75 13H8C3.58172 13 0 16.5817 0 21V35C0 39.4183 3.58172 43 8 43H40C44.4183 43 48 39.4183 48 35V21C48 16.5817 44.4183 13 40 13H32.25L30.096 9.86694C29.7229 9.32423 29.1065 9 28.4479 9H20.5521Z"/>
</mask>
<path d="M18.904 9.86694L21.3761 11.5665V11.5665L18.904 9.86694ZM16.75 13V16H18.3281L19.2221 14.6996L16.75 13ZM32.25 13L29.7779 14.6996L30.6719 16H32.25V13ZM30.096 9.86694L32.5681 8.16736L32.5681 8.16735L30.096 9.86694ZM21.3761 11.5665C21.1895 11.8379 20.8814 12 20.5521 12V6C18.9056 6 17.3646 6.81058 16.4319 8.16736L21.3761 11.5665ZM19.2221 14.6996L21.3761 11.5665L16.4319 8.16735L14.2779 11.3004L19.2221 14.6996ZM8 16H16.75V10H8V16ZM3 21C3 18.2386 5.23858 16 8 16V10C1.92487 10 -3 14.9249 -3 21H3ZM3 35V21H-3V35H3ZM8 40C5.23858 40 3 37.7614 3 35H-3C-3 41.0751 1.92487 46 8 46V40ZM40 40H8V46H40V40ZM45 35C45 37.7614 42.7614 40 40 40V46C46.0751 46 51 41.0751 51 35H45ZM45 21V35H51V21H45ZM40 16C42.7614 16 45 18.2386 45 21H51C51 14.9249 46.0751 10 40 10V16ZM32.25 16H40V10H32.25V16ZM27.6239 11.5665L29.7779 14.6996L34.7221 11.3004L32.5681 8.16736L27.6239 11.5665ZM28.4479 12C28.1186 12 27.8105 11.8379 27.6239 11.5665L32.5681 8.16735C31.6354 6.81059 30.0944 6 28.4479 6V12ZM20.5521 12H28.4479V6H20.5521V12Z" fill="#152C5B" mask="url(#path-1-inside-1)"/>
<circle cx="24" cy="28" r="6.5" stroke="#FF498B" stroke-width="3"/>
<path d="M41 20H34" stroke="#152C5B" stroke-width="3" stroke-linecap="round"/>
</svg>
