<svg width="48" height="48" viewBox="0 0 48 48" fill="none" xmlns="http://www.w3.org/2000/svg">
<path d="M13.5 20C13.5 18.6193 14.6193 17.5 16 17.5H20C21.3807 17.5 22.5 18.6193 22.5 20V25.5H13.5V20Z" stroke="#FF498B" stroke-width="3"/>
<path d="M26.5 20C26.5 18.6193 27.6193 17.5 29 17.5H33C34.3807 17.5 35.5 18.6193 35.5 20V25.5H26.5V20Z" stroke="#FF498B" stroke-width="3"/>
<path d="M8.5 10C8.5 5.30558 12.3056 1.5 17 1.5H32C36.6944 1.5 40.5 5.30558 40.5 10V25.5H8.5V10Z" stroke="#152C5B" stroke-width="3"/>
<mask id="path-4-inside-1" fill="white">
<path d="M0 28C0 25.7909 1.79086 24 4 24H44C46.2091 24 48 25.7909 48 28V35C48 36.1046 47.1046 37 46 37H2C0.895431 37 0 36.1046 0 35V28Z"/>
</mask>
<path d="M0 28C0 25.7909 1.79086 24 4 24H44C46.2091 24 48 25.7909 48 28V35C48 36.1046 47.1046 37 46 37H2C0.895431 37 0 36.1046 0 35V28Z" stroke="#152C5B" stroke-width="6" mask="url(#path-4-inside-1)"/>
<path d="M43 40H7" stroke="#152C5B" stroke-width="3" stroke-linecap="round"/>
<path d="M43 36V44" stroke="#152C5B" stroke-width="3" stroke-linecap="round"/>
<path d="M5 36V44" stroke="#152C5B" stroke-width="3" stroke-linecap="round"/>
</svg>
