<svg width="48" height="48" viewBox="0 0 48 48" fill="none" xmlns="http://www.w3.org/2000/svg">
<path d="M41 26V13.7799C41 12.9408 40.4762 12.191 39.6884 11.9021L35.2503 10.2751C34.7686 10.0985 34.2375 10.1137 33.7667 10.3177L29 12.383" stroke="#FF498B" stroke-width="3" stroke-linecap="round"/>
<path d="M1.5 30C1.5 28.6193 2.61929 27.5 4 27.5H44C45.3807 27.5 46.5 28.6193 46.5 30C46.5 31.3807 45.3807 32.5 44 32.5H4C2.61929 32.5 1.5 31.3807 1.5 30Z" stroke="#152C5B" stroke-width="3"/>
<path d="M5.5 32.5H42.5V39C42.5 40.933 40.933 42.5 39 42.5H9C7.067 42.5 5.5 40.933 5.5 39V32.5Z" stroke="#152C5B" stroke-width="3"/>
<path d="M37 43V46" stroke="#152C5B" stroke-width="3" stroke-linecap="round"/>
<path d="M11 43V46" stroke="#152C5B" stroke-width="3" stroke-linecap="round"/>
</svg>
