<svg width="48" height="48" viewBox="0 0 48 48" fill="none" xmlns="http://www.w3.org/2000/svg">
<path d="M4.20702 21.0361C4.59579 20.1057 5.50541 19.5 6.51374 19.5H40.947C41.9201 19.5 42.8048 20.0646 43.2146 20.9472L44.5432 20.3303L43.2146 20.9472L46.0003 26.9472C46.7696 28.6043 45.5597 30.5 43.7328 30.5H4.0066C2.22156 30.5 1.01166 28.6831 1.69988 27.0361L4.20702 21.0361Z" stroke="#152C5B" stroke-width="3"/>
<mask id="path-2-inside-1" fill="white">
<path d="M8.109 45.7958C5.89991 45.8102 4.09744 44.031 4.08307 41.8219L4.0065 30.052C4.00291 29.4997 4.44771 29.0491 4.99998 29.0455L10.9999 29.0065C11.5521 29.0029 12.0027 29.4477 12.0063 30L12.0829 41.7699C12.0973 43.9789 10.3181 45.7814 8.109 45.7958Z"/>
</mask>
<path d="M8.109 45.7958C5.89991 45.8102 4.09744 44.031 4.08307 41.8219L4.0065 30.052C4.00291 29.4997 4.44771 29.0491 4.99998 29.0455L10.9999 29.0065C11.5521 29.0029 12.0027 29.4477 12.0063 30L12.0829 41.7699C12.0973 43.9789 10.3181 45.7814 8.109 45.7958Z" stroke="#152C5B" stroke-width="6" mask="url(#path-2-inside-1)"/>
<mask id="path-3-inside-2" fill="white">
<path d="M40.109 45.7958C37.8999 45.8102 36.0974 44.031 36.0831 41.8219L36.0065 30.052C36.0029 29.4997 36.4477 29.0491 37 29.0455L42.9999 29.0065C43.5521 29.0029 44.0027 29.4477 44.0063 30L44.0829 41.7699C44.0973 43.9789 42.3181 45.7814 40.109 45.7958Z"/>
</mask>
<path d="M40.109 45.7958C37.8999 45.8102 36.0974 44.031 36.0831 41.8219L36.0065 30.052C36.0029 29.4997 36.4477 29.0491 37 29.0455L42.9999 29.0065C43.5521 29.0029 44.0027 29.4477 44.0063 30L44.0829 41.7699C44.0973 43.9789 42.3181 45.7814 40.109 45.7958Z" stroke="#152C5B" stroke-width="6" mask="url(#path-3-inside-2)"/>
<path d="M15 12V18" stroke="#152C5B" stroke-width="3" stroke-linecap="round"/>
<path d="M32 12V18" stroke="#152C5B" stroke-width="3" stroke-linecap="round"/>
<mask id="path-6-inside-3" fill="white">
<path d="M14.8318 13.5834C12.2012 13.6005 10.0548 11.4818 10.0377 8.85121L10.0065 4.06195C10.0029 3.50967 10.4477 3.05905 11 3.05546L18.5264 3.0065C19.0787 3.00291 19.5293 3.4477 19.5329 3.99998L19.564 8.78924C19.5811 11.4199 17.4625 13.5663 14.8318 13.5834Z"/>
</mask>
<path d="M14.8318 13.5834C12.2012 13.6005 10.0548 11.4818 10.0377 8.85121L10.0065 4.06195C10.0029 3.50967 10.4477 3.05905 11 3.05546L18.5264 3.0065C19.0787 3.00291 19.5293 3.4477 19.5329 3.99998L19.564 8.78924C19.5811 11.4199 17.4625 13.5663 14.8318 13.5834Z" stroke="#FF498B" stroke-width="6" mask="url(#path-6-inside-3)"/>
<mask id="path-7-inside-4" fill="white">
<path d="M31.8318 13.5834C29.2012 13.6005 27.0548 11.4818 27.0377 8.85121L27.0065 4.06195C27.0029 3.50967 27.4477 3.05905 28 3.05546L35.5264 3.0065C36.0787 3.00291 36.5293 3.4477 36.5329 3.99998L36.564 8.78924C36.5812 11.4199 34.4625 13.5663 31.8318 13.5834Z"/>
</mask>
<path d="M31.8318 13.5834C29.2012 13.6005 27.0548 11.4818 27.0377 8.85121L27.0065 4.06195C27.0029 3.50967 27.4477 3.05905 28 3.05546L35.5264 3.0065C36.0787 3.00291 36.5293 3.4477 36.5329 3.99998L36.564 8.78924C36.5812 11.4199 34.4625 13.5663 31.8318 13.5834Z" stroke="#FF498B" stroke-width="6" mask="url(#path-7-inside-4)"/>
</svg>
