<svg width="48" height="48" viewBox="0 0 48 48" fill="none" xmlns="http://www.w3.org/2000/svg">
<path d="M16.0735 33.2962C16.0735 33.2962 18.6069 29.0037 24.001 29.024C29.395 29.0443 31.8961 33.3557 31.8961 33.3557" stroke="#152C5B" stroke-width="3" stroke-linecap="round"/>
<path d="M10.1467 27.5035C10.1467 27.5035 14.3242 21.5762 23.5902 21.3426C32.8563 21.109 37.3271 26.8183 37.3271 26.8183" stroke="#152C5B" stroke-width="3" stroke-linecap="round"/>
<path d="M4.16279 20.4361C4.16279 20.4361 10.3877 12.0182 23.7568 11.996C37.1258 11.9738 43.3787 20.371 43.3787 20.371" stroke="#152C5B" stroke-width="3" stroke-linecap="round"/>
<path d="M27.5 40C27.5 41.933 25.933 43.5 24 43.5C22.067 43.5 20.5 41.933 20.5 40C20.5 38.067 22.067 36.5 24 36.5C25.933 36.5 27.5 38.067 27.5 40Z" stroke="#FF498B" stroke-width="3"/>
</svg>
