<svg width="48" height="48" viewBox="0 0 48 48" fill="none" xmlns="http://www.w3.org/2000/svg">
<path d="M36.5 40.5C36.5 41.7509 35.5297 43.2283 33.1912 44.4811C30.9155 45.7002 27.6686 46.5 24 46.5C20.3314 46.5 17.0845 45.7002 14.8088 44.4811C12.4703 43.2283 11.5 41.7509 11.5 40.5C11.5 39.2491 12.4703 37.7717 14.8088 36.5189C17.0845 35.2998 20.3314 34.5 24 34.5C27.6686 34.5 30.9155 35.2998 33.1912 36.5189C35.5297 37.7717 36.5 39.2491 36.5 40.5Z" fill="white" stroke="#152C5B" stroke-width="3" stroke-linecap="round" stroke-linejoin="round"/>
<path d="M34.6895 12.5C34.6895 15.5965 33.394 23.0556 31.2459 29.7788C30.1754 33.1291 28.9259 36.1897 27.5816 38.3823C26.9087 39.4798 26.2514 40.2943 25.6349 40.8196C25.021 41.3428 24.5448 41.5 24.1895 41.5C23.8341 41.5 23.3579 41.3428 22.744 40.8196C22.1275 40.2943 21.4702 39.4798 20.7973 38.3823C19.453 36.1897 18.2035 33.1291 17.133 29.7788C14.9849 23.0556 13.6895 15.5965 13.6895 12.5C13.6895 6.70101 18.3905 2 24.1895 2C29.9884 2 34.6895 6.70101 34.6895 12.5Z" fill="white" stroke="#152C5B" stroke-width="3"/>
<circle cx="24" cy="14" r="3.5" stroke="#FF498B" stroke-width="3"/>
</svg>
